<?xml version="1.0" encoding="UTF-8" ?>
<!DOCTYPE svg PUBLIC "-//W3C//DTD SVG 1.1//EN" "http://www.w3.org/Graphics/SVG/1.1/DTD/svg11.dtd">
<svg width="1259pt" height="843pt" viewBox="0 0 1259 843" version="1.1" xmlns="http://www.w3.org/2000/svg">
<g id="#309750ff">
<path fill="#309750" opacity="1.00" d=" M 577.58 145.54 C 612.25 145.96 646.92 145.75 681.59 145.33 C 681.52 159.53 681.71 173.73 681.67 187.93 C 674.46 187.98 667.26 187.93 660.05 187.97 C 660.07 220.50 659.99 253.03 660.09 285.56 C 685.10 252.71 709.58 219.45 734.63 186.62 C 750.76 220.16 762.56 255.66 771.52 291.75 C 784.16 343.54 791.11 396.74 792.18 450.04 C 767.73 450.05 743.29 450.07 718.85 450.02 C 721.62 425.51 721.25 400.69 718.36 376.21 C 715.52 353.27 710.65 330.36 701.53 309.05 C 701.23 307.60 699.94 308.86 699.67 309.55 C 682.79 334.38 665.86 359.19 648.92 383.99 C 636.73 384.04 624.53 384.14 612.34 383.95 C 594.13 358.28 575.68 332.77 557.44 307.12 C 550.43 323.79 546.21 341.50 543.15 359.27 C 538.20 389.27 536.86 419.92 539.86 450.19 C 515.41 450.30 490.96 450.34 466.51 450.41 C 466.55 407.76 470.91 365.13 479.18 323.30 C 488.57 276.17 502.82 229.77 524.10 186.60 C 549.19 219.27 573.85 252.27 598.87 284.98 C 599.08 252.65 599.17 220.31 599.24 187.97 C 591.96 187.93 584.68 187.98 577.40 187.93 C 577.55 173.80 577.42 159.67 577.58 145.54 Z" />
<path fill="#309750" opacity="1.00" d=" M 147.47 486.66 C 159.23 486.14 171.06 486.43 182.84 486.52 C 186.29 486.35 186.84 490.33 186.76 492.95 C 186.74 536.65 186.74 580.35 186.76 624.05 C 186.82 626.66 186.28 630.60 182.84 630.47 C 171.37 630.67 159.86 630.68 148.39 630.46 C 145.44 630.58 144.07 627.56 144.26 625.02 C 144.22 581.00 144.29 536.97 144.23 492.94 C 144.18 490.56 144.50 487.06 147.47 486.66 Z" />
<path fill="#309750" opacity="1.00" d=" M 229.37 486.62 C 237.23 486.08 245.14 486.60 253.02 486.39 C 256.65 486.50 261.13 486.13 263.64 489.33 C 275.32 505.01 287.05 520.68 299.02 536.15 C 311.34 520.70 323.20 504.88 335.23 489.21 C 337.82 486.04 342.32 486.49 345.98 486.39 C 353.19 486.58 360.42 486.13 367.61 486.58 C 370.78 486.73 371.02 490.54 371.02 492.94 C 370.96 536.98 371.04 581.02 370.98 625.06 C 371.11 627.60 369.89 630.75 366.85 630.49 C 355.96 630.66 345.04 630.66 334.16 630.49 C 331.15 630.70 329.56 627.68 329.78 625.03 C 329.62 601.15 329.93 577.25 329.64 553.37 C 322.90 561.12 317.17 569.70 310.49 577.49 C 302.85 578.49 294.84 577.88 287.09 577.80 C 279.99 570.53 274.21 562.01 267.30 554.52 C 267.15 578.03 267.36 601.54 267.21 625.04 C 267.35 627.68 265.96 630.84 262.84 630.51 C 251.95 630.62 241.04 630.69 230.16 630.47 C 227.26 630.59 225.78 627.60 226.01 625.06 C 225.97 581.03 226.04 536.99 225.98 492.96 C 225.87 490.51 226.32 486.95 229.37 486.62 Z" />
<path fill="#309750" opacity="1.00" d=" M 410.61 491.98 C 410.30 489.23 412.09 486.18 415.15 486.48 C 445.45 486.33 475.76 486.46 506.07 486.41 C 508.88 486.09 512.13 487.83 511.96 491.01 C 512.11 499.71 512.14 508.43 511.95 517.13 C 512.13 519.86 509.55 521.64 507.01 521.30 C 489.07 521.38 471.12 521.31 453.18 521.33 C 453.16 527.08 453.16 532.84 453.17 538.60 C 468.45 538.61 483.74 538.52 499.02 538.62 C 501.73 538.39 504.65 540.17 504.61 543.12 C 504.89 551.70 504.78 560.31 504.68 568.90 C 504.91 571.67 502.55 573.79 499.84 573.54 C 484.28 573.68 468.71 573.52 453.15 573.60 C 453.18 580.93 453.16 588.26 453.17 595.60 C 471.12 595.59 489.07 595.56 507.02 595.60 C 509.75 595.30 512.83 597.02 512.84 600.03 C 513.08 608.67 512.98 617.34 512.88 625.98 C 513.10 628.74 510.69 630.85 508.00 630.54 C 477.33 630.63 446.66 630.58 416.00 630.56 C 412.73 631.05 410.15 628.25 410.61 625.03 C 410.57 580.68 410.57 536.33 410.61 491.98 Z" />
<path fill="#309750" opacity="1.00" d=" M 546.83 490.01 C 546.67 487.11 549.67 486.26 552.01 486.42 C 585.69 486.41 619.38 486.43 653.06 486.41 C 655.86 486.08 659.23 487.73 659.07 490.95 C 659.31 499.31 659.14 507.68 659.15 516.05 C 659.42 518.55 657.93 521.48 655.05 521.23 C 644.73 521.51 634.39 521.24 624.07 521.33 C 624.02 555.56 624.05 589.80 624.06 624.03 C 624.25 626.80 623.44 630.81 619.85 630.50 C 608.62 630.66 597.38 630.64 586.15 630.51 C 582.56 630.84 581.19 626.99 581.49 624.05 C 581.54 589.84 581.43 555.64 581.55 521.43 C 571.03 521.08 560.50 521.64 549.99 521.17 C 546.73 521.18 546.61 517.39 546.64 515.01 C 546.79 506.68 546.42 498.33 546.83 490.01 Z" />
<path fill="#309750" opacity="1.00" d=" M 710.63 486.54 C 723.61 486.29 736.63 486.37 749.62 486.51 C 754.14 486.18 756.65 490.34 757.74 494.14 C 771.95 537.56 786.22 580.96 800.41 624.39 C 801.11 626.41 801.71 630.17 798.66 630.41 C 786.84 630.77 774.99 630.59 763.17 630.50 C 759.74 630.65 757.17 627.94 756.34 624.82 C 753.89 616.96 751.95 608.94 749.69 601.03 C 736.84 600.87 724.00 600.97 711.15 600.97 C 708.71 609.36 706.94 617.97 704.07 626.22 C 702.56 630.25 697.76 630.74 694.05 630.62 C 684.17 630.42 674.27 630.86 664.40 630.42 C 660.86 630.62 661.43 626.56 662.25 624.30 C 675.69 580.80 689.21 537.31 702.67 493.81 C 703.62 490.07 706.36 486.38 710.63 486.54 M 719.67 569.21 C 726.75 569.29 733.83 569.24 740.91 569.25 C 737.40 555.55 734.37 541.72 730.67 528.07 C 725.67 541.32 723.49 555.56 719.67 569.21 Z" />
<path fill="#309750" opacity="1.00" d=" M 831.38 486.62 C 839.24 486.08 847.14 486.59 855.03 486.39 C 858.65 486.50 863.14 486.14 865.63 489.36 C 877.32 505.02 889.02 520.70 901.01 536.15 C 913.32 520.69 925.18 504.87 937.22 489.20 C 939.82 486.04 944.31 486.48 947.98 486.39 C 955.19 486.58 962.42 486.12 969.62 486.58 C 972.76 486.76 972.96 490.54 973.01 492.93 C 972.99 536.64 973.00 580.36 973.01 624.07 C 973.13 626.78 972.38 630.75 968.85 630.49 C 957.96 630.66 947.04 630.66 936.15 630.49 C 933.16 630.70 931.48 627.69 931.77 625.03 C 931.63 601.14 931.92 577.24 931.63 553.36 C 924.64 561.15 919.12 570.28 911.92 577.80 C 904.33 578.08 896.68 578.08 889.10 577.80 C 881.98 570.55 876.18 562.02 869.30 554.51 C 869.17 577.68 869.31 600.85 869.24 624.02 C 869.36 626.84 868.49 630.87 864.85 630.51 C 853.95 630.62 843.04 630.70 832.15 630.47 C 829.25 630.61 827.76 627.64 828.02 625.10 C 827.96 581.06 828.04 537.01 827.98 492.97 C 827.87 490.52 828.27 486.90 831.38 486.62 Z" />
<path fill="#309750" opacity="1.00" d=" M 1012.17 491.95 C 1011.82 489.04 1013.82 486.04 1017.00 486.46 C 1047.33 486.37 1077.66 486.43 1107.99 486.43 C 1110.77 486.11 1113.70 488.16 1113.53 491.16 C 1113.64 499.71 1113.63 508.29 1113.53 516.85 C 1113.71 519.39 1111.62 521.58 1109.03 521.28 C 1090.94 521.41 1072.84 521.33 1054.75 521.30 C 1054.63 527.02 1054.67 532.75 1054.63 538.48 C 1070.09 538.77 1085.56 538.42 1101.02 538.64 C 1104.01 538.36 1106.53 540.98 1106.21 543.96 C 1106.27 552.31 1106.34 560.68 1106.18 569.04 C 1106.36 571.52 1104.36 573.69 1101.85 573.50 C 1086.13 573.73 1070.39 573.48 1054.67 573.61 C 1054.65 580.89 1054.70 588.19 1054.62 595.48 C 1073.08 595.82 1091.55 595.33 1110.00 595.71 C 1113.31 595.63 1114.79 599.14 1114.51 601.99 C 1114.39 610.31 1114.77 618.66 1114.31 626.97 C 1114.20 630.21 1110.56 630.71 1108.04 630.60 C 1077.75 630.53 1047.45 630.66 1017.15 630.54 C 1013.97 630.90 1011.79 628.05 1012.17 625.04 C 1012.16 580.68 1012.16 536.32 1012.17 491.95 Z" />
</g>
<g id="#a6a8aafc">
<path fill="#a6a8aa" opacity="1.00" d=" M 232.40 664.42 C 238.41 662.12 245.19 663.10 251.13 665.20 C 250.81 667.23 250.47 669.26 250.15 671.31 C 245.82 671.12 241.39 670.08 237.11 671.09 C 235.09 671.54 234.78 674.54 236.06 675.90 C 240.17 677.71 245.01 677.60 248.78 680.23 C 254.65 684.41 253.53 695.03 246.83 697.84 C 240.28 700.58 232.75 699.49 226.23 697.15 C 226.66 695.11 227.09 693.08 227.53 691.05 C 232.18 691.42 236.93 692.61 241.56 691.60 C 244.11 691.08 244.64 686.94 242.23 685.91 C 237.93 684.10 232.72 684.18 229.11 680.89 C 224.16 676.29 225.99 666.76 232.40 664.42 Z" />
<path fill="#a6a8aa" opacity="1.00" d=" M 267.09 664.17 C 272.81 662.47 279.38 662.73 284.80 665.31 C 285.56 667.23 284.37 669.37 284.16 671.35 C 279.85 671.09 275.41 670.06 271.14 671.10 C 269.16 671.68 269.07 674.26 269.94 675.79 C 273.86 677.60 278.44 677.57 282.21 679.77 C 288.77 683.56 287.93 694.93 280.94 697.83 C 274.39 700.58 266.86 699.50 260.35 697.16 C 260.73 695.12 261.14 693.10 261.57 691.10 C 266.22 691.40 270.95 692.56 275.58 691.63 C 277.98 691.15 278.66 687.65 276.86 686.15 C 272.44 684.02 266.91 684.35 263.16 680.85 C 258.10 676.05 260.31 666.18 267.09 664.17 Z" />
<path fill="#a6a8aa" opacity="1.00" d=" M 305.42 663.63 C 312.21 661.90 321.24 663.50 324.13 670.71 C 326.46 677.25 326.33 684.72 324.19 691.29 C 320.85 700.01 309.03 701.39 301.63 697.41 C 295.38 693.67 294.93 685.42 295.20 678.93 C 295.23 672.46 298.58 665.16 305.42 663.63 M 307.31 671.17 C 302.92 675.14 304.06 682.22 304.79 687.51 C 305.34 692.97 313.96 693.72 315.86 688.84 C 317.50 684.26 317.34 679.10 316.17 674.43 C 315.32 670.63 310.43 669.43 307.31 671.17 Z" />
<path fill="#a6a8aa" opacity="1.00" d=" M 377.09 664.18 C 382.81 662.48 389.39 662.71 394.80 665.31 C 395.58 667.22 394.38 669.37 394.18 671.36 C 389.86 671.08 385.42 670.06 381.13 671.11 C 379.15 671.71 379.14 674.25 379.94 675.80 C 384.08 677.69 388.98 677.55 392.83 680.16 C 398.78 684.31 397.71 695.04 390.94 697.84 C 384.40 700.58 376.89 699.50 370.39 697.17 C 370.76 695.13 371.16 693.10 371.59 691.09 C 376.23 691.40 380.95 692.56 385.58 691.63 C 388.25 691.18 388.79 686.86 386.29 685.85 C 381.98 684.09 376.80 684.16 373.21 680.87 C 368.13 676.07 370.32 666.21 377.09 664.18 Z" />
<path fill="#a6a8aa" opacity="1.00" d=" M 431.80 664.58 C 439.18 661.22 450.36 662.92 453.35 671.43 C 455.53 679.39 455.66 688.92 450.33 695.73 C 452.46 696.35 454.58 696.99 456.70 697.67 C 455.67 700.11 454.62 702.54 453.48 704.93 C 450.01 703.64 446.65 702.12 443.24 700.71 C 438.84 698.62 433.32 699.96 429.42 696.65 C 424.13 692.51 423.92 685.06 424.11 678.93 C 424.27 673.36 426.36 667.05 431.80 664.58 M 436.23 671.13 C 431.78 675.10 432.86 682.24 433.68 687.55 C 434.35 692.92 442.73 693.71 444.66 688.85 C 446.36 684.19 446.24 678.89 444.93 674.16 C 443.99 670.51 439.24 669.54 436.23 671.13 Z" />
<path fill="#a6a8aa" opacity="1.00" d=" M 621.25 663.60 C 629.19 663.46 637.14 663.37 645.08 663.66 C 644.86 666.38 645.54 669.46 643.80 671.82 C 639.20 678.49 634.43 685.05 629.85 691.74 C 634.93 691.75 640.01 691.70 645.10 691.83 C 645.12 694.18 645.13 696.53 645.12 698.88 C 636.83 698.93 628.54 698.97 620.25 698.86 C 620.38 696.04 619.63 692.84 621.49 690.44 C 626.04 683.84 630.79 677.37 635.24 670.70 C 630.61 670.65 625.97 670.70 621.35 670.60 C 621.27 668.26 621.25 665.93 621.25 663.60 Z" />
<path fill="#a6a8aa" opacity="1.00" d=" M 843.95 664.19 C 845.86 662.92 850.00 663.07 852.16 664.12 C 852.53 675.69 852.33 687.31 852.23 698.90 C 849.44 698.91 846.65 698.91 843.87 698.90 C 843.76 687.33 843.51 675.73 843.95 664.19 Z" />
<path fill="#a6a8aa" opacity="1.00" d=" M 1015.21 663.51 C 1017.91 663.52 1020.62 663.54 1023.33 663.62 C 1023.30 675.40 1023.41 687.18 1023.27 698.96 C 1020.97 698.88 1018.63 699.12 1016.39 698.60 C 1011.55 692.41 1007.55 685.60 1003.17 679.08 C 1003.14 685.68 1003.24 692.28 1003.09 698.89 C 1000.35 698.90 997.63 698.90 994.91 698.88 C 994.77 687.11 994.81 675.33 994.89 663.56 C 997.24 663.53 999.60 663.54 1001.98 663.58 C 1006.38 670.14 1010.59 676.82 1015.01 683.37 C 1015.17 676.75 1014.94 670.13 1015.21 663.51 Z" />
<path fill="#a6a8aa" opacity="1.00" d=" M 1035.05 670.96 C 1039.25 661.29 1052.39 661.60 1060.50 665.70 C 1060.06 667.60 1059.63 669.50 1059.17 671.41 C 1054.96 671.24 1050.60 670.10 1046.46 671.29 C 1042.43 673.11 1042.29 678.23 1042.31 682.03 C 1042.37 685.42 1042.71 690.01 1046.45 691.41 C 1050.65 692.53 1055.05 691.39 1059.32 691.22 C 1059.74 693.16 1060.16 695.11 1060.56 697.08 C 1056.67 698.81 1052.43 699.19 1048.29 699.80 C 1046.83 701.29 1050.00 701.41 1050.81 702.20 C 1054.22 703.23 1053.54 708.23 1051.11 709.98 C 1048.11 712.07 1044.25 711.15 1040.89 710.90 C 1040.91 710.09 1040.94 708.47 1040.96 707.65 C 1043.47 707.32 1047.22 708.86 1048.65 706.01 C 1048.03 703.70 1045.21 704.37 1043.47 703.75 C 1043.93 702.31 1044.41 700.88 1044.91 699.47 C 1032.29 696.84 1031.24 680.86 1035.05 670.96 Z" />
<path fill="#a6a8aa" opacity="1.00" d=" M 161.26 663.62 C 167.68 663.76 174.36 662.56 180.58 664.56 C 188.70 667.55 189.01 680.63 181.55 684.53 C 177.94 686.44 173.69 685.91 169.75 686.04 C 169.76 690.32 169.78 694.60 169.69 698.88 C 166.90 698.90 164.10 698.90 161.31 698.87 C 161.17 687.12 161.27 675.37 161.26 663.62 M 169.76 670.56 C 169.75 673.40 169.75 676.25 169.75 679.10 C 172.83 679.05 178.22 679.56 178.07 675.02 C 178.67 670.30 172.91 670.54 169.76 670.56 Z" />
<path fill="#a6a8aa" opacity="1.00" d=" M 194.72 663.54 C 202.54 663.48 210.36 663.43 218.19 663.58 C 218.14 665.91 218.10 668.26 218.04 670.60 C 213.08 670.71 208.12 670.66 203.16 670.67 C 203.16 672.79 203.17 674.92 203.17 677.05 C 207.58 677.07 212.00 677.06 216.41 677.15 C 216.32 679.45 216.78 681.90 215.97 684.12 C 211.71 684.43 207.43 684.20 203.17 684.24 C 203.17 686.74 203.17 689.24 203.17 691.75 C 208.24 691.74 213.31 691.71 218.38 691.82 C 218.38 694.17 218.37 696.53 218.33 698.90 C 210.47 698.94 202.61 698.93 194.75 698.90 C 194.59 687.11 194.65 675.33 194.72 663.54 Z" />
<path fill="#a6a8aa" opacity="1.00" d=" M 343.22 663.65 C 346.51 663.49 349.81 663.48 353.11 663.53 C 357.09 675.26 360.99 687.02 364.71 698.84 C 361.76 698.91 358.82 698.92 355.87 698.95 C 355.02 696.34 354.27 693.69 353.54 691.05 C 350.03 690.99 346.52 690.99 343.01 691.00 C 342.23 693.61 341.45 696.23 340.61 698.82 C 337.78 698.90 334.96 698.90 332.13 698.87 C 335.69 687.08 339.50 675.38 343.22 663.65 M 344.87 684.40 C 347.11 684.40 349.35 684.40 351.60 684.40 C 350.47 680.24 349.38 676.07 348.27 671.91 C 347.08 676.06 345.96 680.22 344.87 684.40 Z" />
<path fill="#a6a8aa" opacity="1.00" d=" M 464.64 663.54 C 467.41 663.50 470.19 663.51 472.97 663.56 C 473.24 671.72 472.56 679.94 473.32 688.07 C 473.95 693.43 482.99 693.35 483.68 688.06 C 484.34 679.93 483.66 671.73 483.96 663.58 C 486.75 663.51 489.55 663.50 492.35 663.52 C 492.27 672.31 492.86 681.16 492.03 689.91 C 489.69 702.68 467.51 702.80 465.04 689.98 C 464.03 681.23 464.79 672.34 464.64 663.54 Z" />
<path fill="#a6a8aa" opacity="1.00" d=" M 502.73 663.55 C 510.55 663.47 518.37 663.45 526.18 663.56 C 526.14 665.91 526.12 668.26 526.08 670.62 C 521.13 670.69 516.18 670.66 511.24 670.69 C 511.24 672.81 511.25 674.93 511.26 677.05 C 515.66 677.07 520.07 677.06 524.48 677.15 C 524.23 679.38 525.16 682.19 523.87 684.08 C 519.67 684.49 515.45 684.18 511.25 684.24 C 511.25 686.74 511.25 689.24 511.25 691.75 C 516.30 691.74 521.35 691.72 526.40 691.81 C 526.39 694.17 526.38 696.53 526.34 698.90 C 518.49 698.93 510.63 698.94 502.78 698.89 C 502.56 687.11 502.65 675.33 502.73 663.55 Z" />
<path fill="#a6a8aa" opacity="1.00" d=" M 554.47 698.88 C 554.50 687.08 554.09 675.28 554.51 663.50 C 562.17 663.52 569.83 663.44 577.49 663.55 C 577.19 665.80 578.21 668.63 576.85 670.53 C 572.22 670.90 567.57 670.58 562.93 670.67 C 562.92 672.79 562.92 674.93 562.93 677.06 C 567.12 677.07 571.32 677.06 575.51 677.15 C 575.57 679.46 575.58 681.78 575.57 684.11 C 571.36 684.25 567.15 684.31 562.95 684.24 C 562.91 689.12 562.95 694.00 562.86 698.88 C 560.06 698.90 557.26 698.90 554.47 698.88 Z" />
<path fill="#a6a8aa" opacity="1.00" d=" M 593.16 663.64 C 596.46 663.48 599.76 663.48 603.07 663.55 C 607.03 675.28 610.95 687.02 614.65 698.83 C 611.81 698.91 608.97 699.08 606.15 698.81 C 604.52 696.56 604.33 693.62 603.50 691.04 C 599.98 691.00 596.47 691.00 592.95 691.00 C 592.18 693.61 591.39 696.22 590.56 698.82 C 587.74 698.90 584.92 698.90 582.10 698.86 C 585.62 687.07 589.48 675.38 593.16 663.64 M 594.82 684.40 C 597.05 684.40 599.28 684.40 601.53 684.41 C 600.44 680.25 599.35 676.09 598.21 671.95 C 597.03 676.08 595.90 680.23 594.82 684.40 Z" />
<path fill="#a6a8aa" opacity="1.00" d=" M 654.10 663.59 C 661.88 663.40 669.67 663.53 677.46 663.50 C 677.50 665.86 677.52 668.22 677.56 670.59 C 672.57 670.71 667.58 670.67 662.59 670.67 C 662.58 672.79 662.58 674.93 662.59 677.06 C 666.99 677.08 671.39 677.05 675.79 677.15 C 675.81 679.47 675.81 681.80 675.79 684.14 C 671.38 684.28 666.98 684.27 662.58 684.25 C 662.58 686.74 662.58 689.24 662.58 691.75 C 667.65 691.73 672.72 691.70 677.79 691.87 C 677.81 694.18 677.81 696.51 677.77 698.84 C 669.90 698.98 662.02 698.95 654.15 698.86 C 654.01 687.10 654.09 675.35 654.10 663.59 Z" />
<path fill="#a6a8aa" opacity="1.00" d=" M 686.97 663.56 C 689.31 663.51 691.66 663.38 694.01 663.63 C 698.21 669.80 700.75 676.99 704.22 683.61 C 707.55 677.02 710.39 670.16 714.21 663.83 C 716.49 663.32 718.86 663.51 721.20 663.47 C 721.28 675.29 721.30 687.10 721.19 698.92 C 718.47 698.91 715.76 698.90 713.06 698.86 C 712.93 693.10 713.04 687.34 712.97 681.59 C 709.85 686.19 709.13 696.33 701.38 693.58 C 698.83 689.90 697.37 685.61 695.28 681.68 C 695.20 687.42 695.35 693.16 695.13 698.91 C 692.40 698.91 689.69 698.90 686.98 698.87 C 686.87 687.10 686.89 675.33 686.97 663.56 Z" />
<path fill="#a6a8aa" opacity="1.00" d=" M 758.12 663.63 C 761.41 663.48 764.72 663.48 768.03 663.57 C 771.93 675.31 775.92 687.02 779.57 698.84 C 776.62 698.78 773.51 699.40 770.66 698.50 C 769.65 696.11 769.11 693.56 768.46 691.07 C 764.93 691.00 761.40 690.99 757.88 691.00 C 757.12 693.51 756.56 696.11 755.46 698.50 C 752.74 699.35 749.81 698.80 747.02 698.84 C 750.58 687.06 754.38 675.35 758.12 663.63 M 759.76 684.40 C 761.99 684.40 764.22 684.41 766.47 684.41 C 765.36 680.26 764.27 676.11 763.16 671.97 C 761.94 676.09 760.82 680.23 759.76 684.40 Z" />
<path fill="#a6a8aa" opacity="1.00" d=" M 805.30 666.99 C 805.43 665.75 804.83 663.23 806.94 663.56 C 814.95 663.77 825.43 661.52 830.85 669.13 C 835.00 676.41 835.01 686.41 830.67 693.61 C 824.72 701.43 813.80 698.34 805.38 698.86 C 805.26 688.24 805.37 677.61 805.30 666.99 M 813.86 670.56 C 813.82 677.66 813.84 684.76 813.85 691.87 C 817.26 691.76 821.71 692.07 823.51 688.43 C 825.57 684.05 825.40 678.64 823.65 674.19 C 822.02 670.33 817.31 670.69 813.86 670.56 Z" />
<path fill="#a6a8aa" opacity="1.00" d=" M 862.97 663.57 C 870.67 663.46 878.38 663.43 886.09 663.59 C 886.04 665.92 886.00 668.26 885.93 670.60 C 881.12 670.71 876.31 670.66 871.51 670.68 C 871.49 672.79 871.50 674.92 871.51 677.06 C 875.68 677.08 879.86 677.05 884.04 677.15 C 884.05 679.48 884.05 681.81 884.06 684.16 C 879.87 684.27 875.68 684.26 871.49 684.26 C 871.51 689.13 871.54 694.01 871.41 698.88 C 868.59 698.91 865.78 698.90 862.98 698.88 C 862.87 687.11 862.89 675.34 862.97 663.57 Z" />
<path fill="#a6a8aa" opacity="1.00" d=" M 894.10 663.59 C 901.88 663.40 909.67 663.53 917.46 663.50 C 917.50 665.86 917.52 668.22 917.56 670.59 C 912.57 670.71 907.58 670.67 902.59 670.67 C 902.58 672.79 902.58 674.93 902.59 677.06 C 906.98 677.08 911.38 677.05 915.79 677.15 C 915.81 679.47 915.81 681.80 915.79 684.14 C 911.38 684.28 906.98 684.27 902.58 684.25 C 902.58 686.75 902.58 689.24 902.58 691.75 C 907.65 691.73 912.72 691.70 917.79 691.87 C 917.81 694.18 917.81 696.51 917.77 698.84 C 909.90 698.98 902.02 698.96 894.15 698.85 C 894.01 687.10 894.09 675.34 894.10 663.59 Z" />
<path fill="#a6a8aa" opacity="1.00" d=" M 926.82 663.57 C 933.78 663.98 941.33 662.08 947.86 665.20 C 954.98 669.21 954.03 680.49 947.14 684.30 C 949.45 689.10 951.87 693.87 953.97 698.78 C 950.89 698.70 947.48 699.56 944.61 698.41 C 942.23 694.29 940.73 689.73 938.65 685.47 C 937.53 685.47 936.43 685.48 935.34 685.50 C 935.34 689.97 935.36 694.43 935.23 698.91 C 932.42 698.91 929.62 698.91 926.82 698.89 C 926.69 687.12 926.71 675.34 926.82 663.57 M 935.35 670.58 C 935.33 673.25 935.33 675.92 935.35 678.61 C 937.52 678.47 939.75 678.61 941.88 678.06 C 944.64 676.93 944.81 672.05 941.88 671.04 C 939.74 670.52 937.51 670.67 935.35 670.58 Z" />
<path fill="#a6a8aa" opacity="1.00" d=" M 962.10 663.59 C 969.88 663.40 977.67 663.52 985.46 663.51 C 985.49 665.86 985.52 668.22 985.56 670.59 C 980.56 670.71 975.58 670.67 970.59 670.67 C 970.58 672.79 970.58 674.93 970.59 677.06 C 974.98 677.08 979.39 677.05 983.79 677.15 C 983.81 679.47 983.81 681.80 983.78 684.14 C 979.38 684.27 974.98 684.28 970.58 684.25 C 970.58 686.74 970.58 689.24 970.58 691.75 C 975.65 691.73 980.72 691.70 985.79 691.87 C 985.81 694.18 985.80 696.51 985.77 698.84 C 977.89 698.98 970.02 698.95 962.14 698.85 C 962.01 687.10 962.08 675.34 962.10 663.59 Z" />
<path fill="#a6a8aa" opacity="1.00" d=" M 1076.15 663.64 C 1079.44 663.48 1082.75 663.48 1086.06 663.55 C 1090.00 675.28 1093.93 687.02 1097.64 698.83 C 1094.68 698.76 1091.54 699.43 1088.71 698.49 C 1087.69 696.10 1087.16 693.55 1086.50 691.06 C 1082.98 690.99 1079.47 691.00 1075.96 690.98 C 1075.17 693.60 1074.38 696.21 1073.54 698.82 C 1070.71 698.90 1067.88 698.90 1065.07 698.87 C 1068.62 687.08 1072.44 675.37 1076.15 663.64 M 1077.81 684.40 C 1080.04 684.40 1082.27 684.40 1084.51 684.41 C 1083.42 680.25 1082.31 676.09 1081.19 671.95 C 1079.99 676.08 1078.88 680.23 1077.81 684.40 Z" />
</g>
</svg>
